<?xml version="1.0" encoding="utf-8"?>
<!-- Generator: Adobe Illustrator 25.2.1, SVG Export Plug-In . SVG Version: 6.00 Build 0)  -->
<svg version="1.1" id="Слой_1" xmlns="http://www.w3.org/2000/svg" xmlns:xlink="http://www.w3.org/1999/xlink" x="0px" y="0px"
	 viewBox="0 0 1920 1080" style="enable-background:new 0 0 1920 1080;" xml:space="preserve">
<style type="text/css">
	.st0{display:none;}
	.st1{display:inline;fill:url(#SVGID_1_);}
</style>
<g class="st0">
	
		<linearGradient id="SVGID_1_" gradientUnits="userSpaceOnUse" x1="449.6061" y1="531.2362" x2="1451.8278" y2="523.7755" gradientTransform="matrix(1 0 0 -1 0 1080)">
		<stop  offset="0" style="stop-color:#1593FF"/>
		<stop  offset="1" style="stop-color:#00D413"/>
	</linearGradient>
	<path class="st1" d="M1402.3,700H500.7c-26.9,0-48.7-21.8-48.7-48.7V453.7c0-26.9,21.8-48.7,48.7-48.7h901.6
		c26.9,0,48.7,21.8,48.7,48.7v197.6C1451,678.2,1429.2,700,1402.3,700z"/>
</g>
<g>
	<g>
		<path d="M956.4,607.6c-1.3,0-2.4-0.5-3.3-1.4c-0.9-0.9-1.4-2-1.4-3.3V475.8c0-1.3,0.5-2.4,1.4-3.3s2-1.4,3.3-1.4h18.1
			c1.3,0,2.4,0.5,3.3,1.4c0.9,0.9,1.4,2,1.4,3.3v108.6h61.8c1.4,0,2.6,0.5,3.5,1.4s1.4,2.1,1.4,3.5V603c0,1.3-0.5,2.4-1.4,3.3
			c-0.9,0.9-2.1,1.4-3.5,1.4h-84.6V607.6z"/>
		<path d="M1066.4,489.4c-1.4,0-2.6-0.4-3.4-1.3c-0.8-0.8-1.3-2-1.3-3.4v-14c0-1.3,0.4-2.4,1.3-3.3c0.8-0.9,2-1.4,3.4-1.4h17.7
			c1.4,0,2.6,0.5,3.5,1.4s1.4,2,1.4,3.3v14c0,1.4-0.5,2.6-1.4,3.4s-2.1,1.3-3.5,1.3H1066.4z M1067.2,607.6c-1.3,0-2.4-0.5-3.3-1.4
			s-1.4-2-1.4-3.3v-92c0-1.3,0.5-2.4,1.4-3.3s2-1.4,3.3-1.4h16.2c1.4,0,2.6,0.5,3.4,1.4s1.3,2,1.3,3.3v92c0,1.3-0.4,2.4-1.3,3.3
			c-0.8,0.9-2,1.4-3.4,1.4H1067.2z"/>
		<path d="M1118.7,607.6c-1.3,0-2.4-0.5-3.3-1.4s-1.4-2-1.4-3.3v-92c0-1.3,0.5-2.4,1.4-3.3s2-1.4,3.3-1.4h15.2
			c1.3,0,2.4,0.5,3.3,1.4s1.4,2,1.4,3.3v6.6c2.7-3.6,6.4-6.7,11-9.3c4.6-2.5,10.1-3.9,16.5-4c14.8-0.3,25.2,5.5,31,17.4
			c3-5.2,7.3-9.4,13-12.6c5.7-3.2,11.9-4.8,18.8-4.8c6.8,0,12.9,1.6,18.4,4.7s9.9,7.8,13.1,14.1s4.8,14.3,4.8,23.9v56
			c0,1.3-0.5,2.4-1.4,3.3c-0.9,0.9-2,1.4-3.3,1.4h-16c-1.3,0-2.4-0.5-3.3-1.4s-1.4-2-1.4-3.3v-54.4c0-5.9-0.8-10.5-2.5-13.9
			s-4-5.9-6.8-7.3c-2.9-1.4-6-2.1-9.6-2.1c-2.9,0-5.7,0.7-8.6,2.1c-2.9,1.4-5.2,3.9-7,7.3c-1.8,3.4-2.7,8.1-2.7,13.9v54.4
			c0,1.3-0.5,2.4-1.4,3.3c-0.9,0.9-2,1.4-3.3,1.4h-16c-1.4,0-2.6-0.5-3.4-1.4s-1.3-2-1.3-3.3v-54.4c0-5.9-0.9-10.5-2.7-13.9
			c-1.8-3.4-4.2-5.9-7-7.3c-2.9-1.4-5.9-2.1-9.2-2.1c-3,0-5.9,0.7-8.8,2.2s-5.2,3.9-7,7.3c-1.8,3.4-2.7,8-2.7,13.8v54.4
			c0,1.3-0.5,2.4-1.4,3.3c-0.9,0.9-2,1.4-3.3,1.4L1118.7,607.6L1118.7,607.6z"/>
		<path d="M1333.6,609.5c-14.4,0-25.9-4.2-34.3-12.5c-8.5-8.3-13-20.1-13.6-35.5c-0.1-1.3-0.2-3-0.2-5s0.1-3.6,0.2-4.8
			c0.5-9.8,2.8-18.2,6.7-25.4c4-7.1,9.5-12.6,16.5-16.5c7-3.8,15.3-5.8,24.8-5.8c10.5,0,19.4,2.2,26.5,6.5
			c7.1,4.4,12.5,10.4,16.2,18.1c3.6,7.7,5.5,16.7,5.5,26.8v4.1c0,1.3-0.5,2.4-1.4,3.3c-0.9,0.9-2.1,1.4-3.5,1.4h-64.7
			c0,0.8,0,1.3,0,1.6c0.1,4.6,1,8.7,2.6,12.6c1.6,3.8,4,6.9,7.2,9.3c3.2,2.3,7,3.5,11.4,3.5c3.6,0,6.7-0.6,9.2-1.7
			c2.5-1.1,4.5-2.4,6-3.8c1.6-1.4,2.7-2.6,3.3-3.5c1.2-1.6,2.1-2.5,2.8-2.8c0.7-0.3,1.8-0.5,3.2-0.5h16.8c1.3,0,2.4,0.4,3.2,1.2
			c0.8,0.8,1.2,1.8,1.1,2.9c-0.1,2.1-1.2,4.6-3.2,7.6s-4.9,5.9-8.7,8.8c-3.8,2.9-8.5,5.2-14.1,7.1S1340.8,609.5,1333.6,609.5z
			 M1312.1,548.1h43.1v-0.6c0-5.1-0.8-9.5-2.5-13.3s-4.2-6.8-7.4-9c-3.3-2.2-7.2-3.3-11.7-3.3c-4.6,0-8.5,1.1-11.7,3.3
			c-3.3,2.2-5.7,5.2-7.3,9c-1.6,3.8-2.4,8.2-2.4,13.3L1312.1,548.1L1312.1,548.1z"/>
	</g>
</g>
<circle cx="561" cy="552" r="39"/>
<circle cx="683" cy="552" r="39"/>
<circle cx="806" cy="552" r="39"/>
</svg>
